<svg xmlns="http://www.w3.org/2000/svg" viewBox="0 0 64 64" role="img" aria-label="rocket">
  <defs>
    <linearGradient id="g" x1="0" y1="0" x2="1" y2="1">
      <stop offset="0%" stop-color="#4ade80"/>
      <stop offset="100%" stop-color="#16a34a"/>
    </linearGradient>
  </defs>
  <path fill="url(#g)" d="M39 5c-6 1-14 5-21 12-7 7-11 15-12 21l12 2 11 11 2 12c6-1 14-5 21-12 7-7 11-15 12-21L53 28 42 17 39 5z"/>
  <circle cx="38" cy="26" r="5" fill="#eafff1"/>
  <path fill="#22c55e" d="M17 43l4 4-10 10H7v-4l10-10z"/>
  <path fill="#16a34a" d="M21 47l-4-4 2-7 9 9-7 2z"/>
</svg>
